<?xml version="1.0" encoding="UTF-8"?>
<svg id="Layer_1" data-name="Layer 1" xmlns="http://www.w3.org/2000/svg" xmlns:xlink="http://www.w3.org/1999/xlink" viewBox="0 0 1820 386">
  <defs>
    <style>
      .cls-1 {
        fill: #4d4d4d;
      }

      .cls-1, .cls-2, .cls-3, .cls-4, .cls-5, .cls-6, .cls-7, .cls-8, .cls-9 {
        stroke-width: 0px;
      }

      .cls-2 {
        fill: #036333;
      }

      .cls-4 {
        fill: #00612b;
      }

      .cls-4, .cls-5 {
        fill-rule: evenodd;
      }

      .cls-5, .cls-9 {
        fill: #314da2;
      }

      .cls-10 {
        clip-path: url(#clippath-1);
      }

      .cls-6 {
        clip-rule: evenodd;
        fill: none;
      }

      .cls-7 {
        fill: #fff;
      }

      .cls-11 {
        clip-path: url(#clippath);
      }

      .cls-8 {
        fill: #344ea1;
      }
    </style>
    <clipPath id="clippath">
      <path class="cls-6" d="m230.12,237.44l66.72-65.55s22.24-48.58-12.29-68.48c0,0,98.91-104.76,57.36-55.6l140.46,102.42-105.93,178.5-146.32-91.3Z"/>
    </clipPath>
    <clipPath id="clippath-1">
      <path class="cls-6" d="m284.37,87.07l24.5,21.12,19.43,52.38-27.88,59.14-35.48,22.81s35.48,32.1,70.12,25.35l1.69,12.67h-144.47s-25.35-43.93-25.35-45.62-9.29-75.19-9.29-75.19l13.52-62.52,68.43-17.74,44.78,7.6Z"/>
    </clipPath>
  </defs>
  <rect class="cls-7" width="1820" height="386"/>
  <g>
    <rect class="cls-1" x="586.4" y="50.06" width="5" height="301.25"/>
    <polygon class="cls-8" points="897.06 166.87 897.06 51.69 866.82 51.69 866.82 196.4 895.17 196.4 897.06 196.4 1009.7 196.4 1009.7 166.87 897.06 166.87"/>
    <polygon class="cls-8" points="827.25 235.02 827.25 350.2 857.49 350.2 857.49 205.49 829.14 205.49 827.25 205.49 714.6 205.49 714.6 235.02 827.25 235.02"/>
    <polygon class="cls-2" points="897.13 235.02 897.13 350.2 866.89 350.2 866.89 205.49 895.24 205.49 897.13 205.49 1009.78 205.49 1009.78 235.02 897.13 235.02"/>
    <polygon class="cls-2" points="827.17 166.87 827.17 51.69 857.41 51.69 857.41 196.4 829.06 196.4 827.17 196.4 714.53 196.4 714.53 166.87 827.17 166.87"/>
    <circle class="cls-8" cx="920.57" cy="144.12" r="20.72"/>
    <circle class="cls-8" cx="948.88" cy="116.99" r="17.46" transform="translate(27.46 372.02) rotate(-22.5)"/>
    <circle class="cls-8" cx="972.47" cy="93.09" r="13.61" transform="translate(724.81 1038.09) rotate(-80.78)"/>
    <circle class="cls-8" cx="991.02" cy="74.51" r="9.75"/>
    <circle class="cls-8" cx="1006.66" cy="60.51" r="6.71" transform="translate(565.53 967.39) rotate(-67.5)"/>
    <circle class="cls-2" cx="803.78" cy="144.12" r="20.72"/>
    <circle class="cls-2" cx="775.48" cy="116.99" r="17.46" transform="translate(370.63 788.67) rotate(-67.5)"/>
    <circle class="cls-2" cx="751.89" cy="93.09" r="13.61" transform="translate(-5.2 121.64) rotate(-9.22)"/>
    <circle class="cls-2" cx="733.34" cy="74.51" r="9.75"/>
    <circle class="cls-2" cx="717.69" cy="60.51" r="6.71" transform="translate(31.47 279.25) rotate(-22.5)"/>
    <circle class="cls-2" cx="920.57" cy="258.43" r="20.72"/>
    <circle class="cls-2" cx="948.88" cy="285.56" r="17.46"/>
    <circle class="cls-2" cx="972.47" cy="309.46" r="13.61"/>
    <circle class="cls-2" cx="991.02" cy="328.04" r="9.75" transform="translate(-39.75 162.98) rotate(-9.22)"/>
    <circle class="cls-2" cx="1006.66" cy="342.04" r="6.71" transform="translate(-21.71 72.22) rotate(-4.07)"/>
    <circle class="cls-8" cx="803.78" cy="258.43" r="20.72"/>
    <circle class="cls-8" cx="775.48" cy="285.56" r="17.46"/>
    <circle class="cls-8" cx="751.89" cy="309.46" r="13.61"/>
    <circle class="cls-8" cx="733.34" cy="328.04" r="9.75" transform="translate(292.07 999.36) rotate(-80.78)"/>
    <circle class="cls-8" cx="717.69" cy="342.04" r="6.71" transform="translate(325.64 1033.68) rotate(-85.93)"/>
    <path class="cls-2" d="m1080.36,156.36l13.64,2.29c-1.75,5-4.52,8.81-8.31,11.43-3.79,2.62-8.52,3.92-14.2,3.92-9,0-15.66-2.94-19.98-8.82-3.41-4.71-5.12-10.65-5.12-17.83,0-8.58,2.24-15.29,6.72-20.15,4.48-4.86,10.15-7.28,17.01-7.28,7.7,0,13.77,2.54,18.22,7.63,4.45,5.08,6.58,12.87,6.38,23.36h-34.3c.1,4.06,1.2,7.22,3.31,9.48,2.11,2.26,4.74,3.39,7.89,3.39,2.14,0,3.95-.58,5.41-1.75s2.57-3.05,3.31-5.65Zm.78-13.84c-.1-3.96-1.12-6.98-3.07-9.04-1.95-2.06-4.32-3.09-7.11-3.09-2.99,0-5.46,1.09-7.41,3.26-1.95,2.18-2.91,5.13-2.88,8.87h20.47Z"/>
    <rect class="cls-2" x="1104.33" y="140.09" width="26.9" height="13.69"/>
    <path class="cls-2" d="m1184.24,136.38l-13.5,2.44c-.46-2.7-1.49-4.73-3.09-6.09-1.61-1.36-3.7-2.05-6.26-2.05-3.41,0-6.13,1.18-8.16,3.53-2.03,2.36-3.05,6.29-3.05,11.82,0,6.14,1.03,10.48,3.09,13.01,2.06,2.53,4.83,3.8,8.31,3.8,2.6,0,4.73-.74,6.38-2.22,1.66-1.48,2.83-4.02,3.51-7.63l13.45,2.29c-1.4,6.17-4.08,10.83-8.04,13.98-3.96,3.15-9.28,4.73-15.93,4.73-7.57,0-13.6-2.39-18.1-7.16-4.5-4.77-6.75-11.39-6.75-19.83s2.26-15.19,6.77-19.95c4.51-4.76,10.62-7.14,18.32-7.14,6.3,0,11.31,1.36,15.03,4.07,3.72,2.71,6.39,6.85,8.02,12.4Z"/>
    <path class="cls-2" d="m1191.45,146.23c0-4.55,1.12-8.95,3.36-13.21,2.24-4.26,5.42-7.5,9.53-9.75,4.11-2.24,8.7-3.36,13.77-3.36,7.83,0,14.24,2.54,19.25,7.63,5,5.08,7.5,11.51,7.5,19.27s-2.53,14.32-7.58,19.47c-5.05,5.15-11.41,7.72-19.08,7.72-4.74,0-9.27-1.07-13.57-3.22-4.31-2.14-7.58-5.29-9.82-9.43-2.24-4.14-3.36-9.19-3.36-15.13Zm14.03.73c0,5.13,1.22,9.06,3.65,11.79,2.44,2.73,5.44,4.09,9.01,4.09s6.57-1.36,8.99-4.09c2.42-2.73,3.63-6.69,3.63-11.89s-1.21-8.97-3.63-11.69c-2.42-2.73-5.42-4.09-8.99-4.09s-6.58,1.36-9.01,4.09-3.65,6.66-3.65,11.79Z"/>
    <path class="cls-2" d="m1302.65,172.83h-13.69v-26.41c0-5.59-.29-9.2-.88-10.84-.58-1.64-1.54-2.92-2.85-3.83-1.32-.91-2.9-1.36-4.75-1.36-2.37,0-4.5.65-6.38,1.95-1.88,1.3-3.17,3.02-3.87,5.17-.7,2.14-1.05,6.11-1.05,11.89v23.44h-13.69v-51.75h12.72v7.6c4.51-5.85,10.2-8.77,17.05-8.77,3.02,0,5.78.54,8.28,1.63,2.5,1.09,4.39,2.48,5.68,4.17,1.28,1.69,2.18,3.61,2.68,5.75s.76,5.21.76,9.21v32.16Z"/>
    <path class="cls-2" d="m1340.7,149.59l14.03-1.36c.84,4.71,2.56,8.17,5.14,10.38,2.58,2.21,6.07,3.31,10.45,3.31,4.65,0,8.15-.98,10.5-2.95,2.36-1.97,3.53-4.26,3.53-6.9,0-1.69-.5-3.13-1.49-4.31-.99-1.19-2.72-2.22-5.19-3.09-1.69-.58-5.54-1.62-11.55-3.12-7.73-1.92-13.16-4.27-16.27-7.07-4.39-3.93-6.58-8.72-6.58-14.37,0-3.64,1.03-7.04,3.09-10.21,2.06-3.17,5.04-5.58,8.92-7.24s8.57-2.49,14.06-2.49c8.96,0,15.71,1.97,20.25,5.9,4.53,3.93,6.91,9.18,7.14,15.74l-14.42.63c-.62-3.67-1.94-6.31-3.97-7.92-2.03-1.61-5.08-2.41-9.14-2.41s-7.47.86-9.84,2.58c-1.53,1.1-2.29,2.58-2.29,4.43,0,1.69.71,3.14,2.14,4.34,1.82,1.53,6.24,3.12,13.25,4.77s12.21,3.37,15.57,5.14c3.36,1.77,5.99,4.19,7.89,7.26s2.85,6.86,2.85,11.38c0,4.09-1.14,7.93-3.41,11.5-2.27,3.57-5.49,6.23-9.65,7.97-4.16,1.74-9.34,2.61-15.54,2.61-9.03,0-15.97-2.09-20.81-6.26-4.84-4.17-7.73-10.26-8.67-18.25Z"/>
    <path class="cls-2" d="m1404.34,121.08h14.57l12.38,36.74,12.08-36.74h14.18l-18.27,49.8-3.26,9.01c-1.2,3.02-2.35,5.33-3.43,6.92-1.09,1.59-2.34,2.88-3.75,3.87-1.41.99-3.15,1.76-5.21,2.31-2.06.55-4.39.83-6.99.83s-5.21-.28-7.75-.83l-1.22-10.72c2.14.42,4.08.63,5.8.63,3.18,0,5.54-.93,7.07-2.8,1.53-1.87,2.7-4.25,3.51-7.14l-19.69-51.89Z"/>
    <path class="cls-2" d="m1461.5,158.07l13.74-2.1c.58,2.66,1.77,4.69,3.56,6.07,1.79,1.38,4.29,2.07,7.5,2.07,3.54,0,6.21-.65,7.99-1.95,1.2-.91,1.8-2.13,1.8-3.65,0-1.04-.33-1.9-.97-2.58-.68-.65-2.21-1.25-4.58-1.8-11.04-2.44-18.04-4.66-21-6.68-4.09-2.79-6.14-6.68-6.14-11.65,0-4.48,1.77-8.25,5.31-11.3,3.54-3.05,9.03-4.58,16.47-4.58s12.34,1.15,15.79,3.46c3.44,2.31,5.81,5.72,7.11,10.23l-12.91,2.39c-.55-2.01-1.6-3.56-3.14-4.63-1.54-1.07-3.74-1.61-6.6-1.61-3.61,0-6.19.5-7.75,1.51-1.04.72-1.56,1.64-1.56,2.78,0,.97.45,1.8,1.36,2.48,1.23.91,5.5,2.19,12.79,3.85,7.29,1.66,12.38,3.69,15.28,6.09,2.86,2.44,4.29,5.83,4.29,10.18,0,4.74-1.98,8.82-5.94,12.23-3.96,3.41-9.83,5.12-17.59,5.12-7.05,0-12.63-1.43-16.74-4.29-4.11-2.86-6.8-6.74-8.06-11.65Z"/>
    <path class="cls-2" d="m1545.55,121.08v10.91h-9.36v20.86c0,4.22.09,6.68.27,7.38.18.7.58,1.28,1.22,1.73.63.46,1.41.68,2.31.68,1.27,0,3.1-.44,5.51-1.32l1.17,10.62c-3.18,1.36-6.79,2.05-10.82,2.05-2.47,0-4.69-.41-6.68-1.24-1.98-.83-3.44-1.9-4.36-3.22s-1.57-3.09-1.92-5.34c-.29-1.59-.44-4.81-.44-9.65v-22.56h-6.29v-10.91h6.29v-10.28l13.74-7.99v18.27h9.36Z"/>
    <path class="cls-2" d="m1585.02,156.36l13.64,2.29c-1.75,5-4.52,8.81-8.31,11.43-3.79,2.62-8.52,3.92-14.2,3.92-9,0-15.66-2.94-19.98-8.82-3.41-4.71-5.12-10.65-5.12-17.83,0-8.58,2.24-15.29,6.72-20.15,4.48-4.86,10.15-7.28,17.01-7.28,7.7,0,13.77,2.54,18.22,7.63,4.45,5.08,6.58,12.87,6.38,23.36h-34.3c.1,4.06,1.2,7.22,3.31,9.48,2.11,2.26,4.74,3.39,7.89,3.39,2.14,0,3.95-.58,5.41-1.75s2.57-3.05,3.31-5.65Zm.78-13.84c-.1-3.96-1.12-6.98-3.07-9.04-1.95-2.06-4.32-3.09-7.11-3.09-2.99,0-5.46,1.09-7.41,3.26-1.95,2.18-2.91,5.13-2.88,8.87h20.47Z"/>
    <path class="cls-2" d="m1609.53,121.08h12.62v7.07c4.51-5.49,9.89-8.23,16.13-8.23,3.31,0,6.19.68,8.62,2.05,2.44,1.36,4.43,3.43,5.99,6.19,2.27-2.76,4.73-4.82,7.36-6.19,2.63-1.36,5.44-2.05,8.43-2.05,3.8,0,7.02.77,9.65,2.31,2.63,1.54,4.6,3.81,5.9,6.8.94,2.21,1.41,5.78,1.41,10.72v33.09h-13.69v-29.58c0-5.13-.47-8.45-1.41-9.94-1.27-1.95-3.22-2.92-5.85-2.92-1.92,0-3.72.58-5.41,1.75s-2.91,2.88-3.65,5.14c-.75,2.26-1.12,5.82-1.12,10.7v24.85h-13.69v-28.36c0-5.03-.24-8.28-.73-9.75s-1.24-2.55-2.27-3.26c-1.02-.71-2.41-1.07-4.17-1.07-2.11,0-4.01.57-5.7,1.71-1.69,1.14-2.9,2.78-3.63,4.92-.73,2.14-1.1,5.7-1.1,10.67v25.14h-13.69v-51.75Z"/>
    <path class="cls-2" d="m1694.46,158.07l13.74-2.1c.58,2.66,1.77,4.69,3.56,6.07,1.79,1.38,4.29,2.07,7.5,2.07,3.54,0,6.21-.65,7.99-1.95,1.2-.91,1.8-2.13,1.8-3.65,0-1.04-.33-1.9-.97-2.58-.68-.65-2.21-1.25-4.58-1.8-11.04-2.44-18.04-4.66-21-6.68-4.09-2.79-6.14-6.68-6.14-11.65,0-4.48,1.77-8.25,5.31-11.3,3.54-3.05,9.03-4.58,16.47-4.58s12.34,1.15,15.79,3.46c3.44,2.31,5.81,5.72,7.11,10.23l-12.91,2.39c-.55-2.01-1.6-3.56-3.14-4.63-1.54-1.07-3.74-1.61-6.6-1.61-3.61,0-6.19.5-7.75,1.51-1.04.72-1.56,1.64-1.56,2.78,0,.97.45,1.8,1.36,2.48,1.23.91,5.5,2.19,12.79,3.85,7.29,1.66,12.38,3.69,15.28,6.09,2.86,2.44,4.29,5.83,4.29,10.18,0,4.74-1.98,8.82-5.94,12.23-3.96,3.41-9.83,5.12-17.59,5.12-7.05,0-12.63-1.43-16.74-4.29-4.11-2.86-6.8-6.74-8.06-11.65Z"/>
    <polygon class="cls-8" points="1079.23 269.66 1079.23 239.79 1068.56 239.79 1068.56 233.7 1097.13 233.7 1097.13 239.79 1086.49 239.79 1086.49 269.66 1079.23 269.66"/>
    <path class="cls-8" d="m1108.64,233.7v13.22c2.22-2.6,4.88-3.9,7.97-3.9,1.59,0,3.02.29,4.29.88,1.28.59,2.24,1.34,2.88,2.26.65.92,1.09,1.93,1.32,3.04.24,1.11.36,2.84.36,5.18v15.28h-6.89v-13.76c0-2.73-.13-4.46-.39-5.2-.26-.74-.72-1.32-1.39-1.75-.66-.43-1.49-.65-2.49-.65-1.14,0-2.17.28-3.07.83-.9.56-1.56,1.39-1.97,2.51-.42,1.12-.62,2.78-.62,4.97v13.05h-6.89v-35.96h6.89Z"/>
    <path class="cls-8" d="m1132.45,240.08v-6.38h6.89v6.38h-6.89Zm0,29.58v-26.05h6.89v26.05h-6.89Z"/>
    <path class="cls-8" d="m1170.1,269.66h-6.89v-13.29c0-2.81-.15-4.63-.44-5.46-.29-.83-.77-1.47-1.43-1.93-.66-.46-1.46-.69-2.39-.69-1.19,0-2.26.33-3.21.98s-1.6,1.52-1.95,2.6-.53,3.07-.53,5.98v11.8h-6.89v-26.05h6.4v3.83c2.27-2.94,5.13-4.41,8.58-4.41,1.52,0,2.91.27,4.17.82s2.21,1.25,2.86,2.1c.65.85,1.09,1.82,1.35,2.89s.38,2.62.38,4.63v16.19Z"/>
    <polygon class="cls-8" points="1176.84 269.66 1176.84 233.7 1183.73 233.7 1183.73 252.78 1191.8 243.61 1200.29 243.61 1191.39 253.13 1200.93 269.66 1193.5 269.66 1186.95 257.96 1183.73 261.32 1183.73 269.66 1176.84 269.66"/>
    <path class="cls-8" d="m1242.03,256.44l7.04,2.23c-1.08,3.92-2.87,6.84-5.38,8.74-2.51,1.91-5.69,2.86-9.55,2.86-4.77,0-8.7-1.63-11.77-4.89-3.07-3.26-4.61-7.72-4.61-13.38,0-5.98,1.54-10.63,4.64-13.94,3.09-3.31,7.15-4.97,12.19-4.97,4.4,0,7.97,1.3,10.72,3.9,1.63,1.54,2.86,3.75,3.68,6.62l-7.19,1.72c-.42-1.86-1.31-3.33-2.66-4.41-1.35-1.08-2.99-1.62-4.92-1.62-2.67,0-4.83.96-6.49,2.87s-2.49,5.01-2.49,9.29c0,4.55.82,7.78,2.45,9.71,1.64,1.93,3.76,2.89,6.38,2.89,1.93,0,3.59-.61,4.98-1.84,1.39-1.23,2.39-3.16,2.99-5.79Z"/>
    <path class="cls-8" d="m1260.4,251.56l-6.25-1.13c.7-2.52,1.91-4.38,3.63-5.59s4.27-1.81,7.65-1.81c3.07,0,5.36.36,6.87,1.09,1.5.73,2.56,1.65,3.18,2.77.61,1.12.92,3.18.92,6.17l-.07,8.04c0,2.29.11,3.98.33,5.06.22,1.09.63,2.25,1.24,3.5h-6.82c-.18-.46-.4-1.14-.66-2.04-.12-.41-.2-.68-.25-.81-1.18,1.14-2.44,2-3.78,2.58-1.34.57-2.77.86-4.29.86-2.68,0-4.79-.73-6.34-2.18-1.55-1.46-2.32-3.29-2.32-5.52,0-1.47.35-2.78,1.05-3.94s1.69-2.04,2.96-2.65c1.27-.61,3.09-1.15,5.48-1.61,3.22-.61,5.45-1.17,6.7-1.69v-.69c0-1.32-.33-2.27-.98-2.83-.65-.56-1.89-.85-3.7-.85-1.23,0-2.18.24-2.87.72-.69.48-1.24,1.33-1.67,2.54Zm9.22,5.59c-.88.29-2.28.65-4.19,1.05-1.91.41-3.16.81-3.75,1.2-.9.64-1.35,1.45-1.35,2.43s.36,1.8,1.08,2.5c.72.7,1.63,1.05,2.75,1.05,1.24,0,2.43-.41,3.56-1.23.83-.62,1.38-1.38,1.64-2.28.18-.59.27-1.71.27-3.36v-1.37Z"/>
    <path class="cls-8" d="m1282.67,243.61h6.35v3.56c2.27-2.76,4.98-4.14,8.12-4.14,1.67,0,3.12.34,4.34,1.03,1.23.69,2.23,1.73,3.02,3.12,1.14-1.39,2.38-2.43,3.7-3.12,1.32-.69,2.74-1.03,4.24-1.03,1.91,0,3.53.39,4.86,1.17s2.31,1.92,2.97,3.42c.47,1.11.71,2.91.71,5.4v16.65h-6.89v-14.89c0-2.58-.24-4.25-.71-5-.64-.98-1.62-1.47-2.94-1.47-.96,0-1.87.29-2.72.88-.85.59-1.46,1.45-1.84,2.59-.38,1.14-.56,2.93-.56,5.38v12.51h-6.89v-14.27c0-2.53-.12-4.17-.37-4.91-.25-.74-.62-1.28-1.14-1.64-.51-.36-1.21-.54-2.1-.54-1.06,0-2.02.29-2.87.86-.85.57-1.46,1.4-1.83,2.48-.37,1.08-.55,2.87-.55,5.37v12.66h-6.89v-26.05Z"/>
    <path class="cls-8" d="m1342.93,261.37l6.87,1.15c-.88,2.52-2.28,4.43-4.18,5.75-1.9,1.32-4.29,1.97-7.15,1.97-4.53,0-7.88-1.48-10.06-4.44-1.72-2.37-2.58-5.36-2.58-8.98,0-4.32,1.13-7.7,3.38-10.14,2.26-2.44,5.11-3.67,8.56-3.67,3.88,0,6.93,1.28,9.17,3.84,2.24,2.56,3.31,6.48,3.21,11.76h-17.27c.05,2.04.61,3.63,1.67,4.77,1.06,1.14,2.39,1.71,3.97,1.71,1.08,0,1.99-.29,2.72-.88.74-.59,1.29-1.54,1.67-2.85Zm.39-6.96c-.05-2-.56-3.51-1.54-4.55-.98-1.04-2.17-1.56-3.58-1.56-1.5,0-2.75.55-3.73,1.64-.98,1.1-1.46,2.58-1.45,4.46h10.3Z"/>
    <path class="cls-8" d="m1362.38,269.66h-6.89v-26.05h6.4v3.7c1.1-1.75,2.08-2.9,2.96-3.46.87-.56,1.87-.83,2.98-.83,1.57,0,3.08.43,4.54,1.3l-2.13,6.01c-1.16-.75-2.24-1.13-3.24-1.13s-1.78.27-2.45.8c-.67.53-1.2,1.49-1.58,2.88-.38,1.39-.58,4.3-.58,8.73v8.04Z"/>
    <path class="cls-8" d="m1380.48,251.56l-6.25-1.13c.7-2.52,1.91-4.38,3.63-5.59s4.27-1.81,7.65-1.81c3.07,0,5.36.36,6.87,1.09,1.5.73,2.56,1.65,3.18,2.77.61,1.12.92,3.18.92,6.17l-.07,8.04c0,2.29.11,3.98.33,5.06.22,1.09.63,2.25,1.24,3.5h-6.82c-.18-.46-.4-1.14-.66-2.04-.12-.41-.2-.68-.25-.81-1.18,1.14-2.44,2-3.78,2.58-1.34.57-2.77.86-4.29.86-2.68,0-4.79-.73-6.34-2.18-1.55-1.46-2.32-3.29-2.32-5.52,0-1.47.35-2.78,1.05-3.94s1.69-2.04,2.96-2.65c1.27-.61,3.09-1.15,5.48-1.61,3.22-.61,5.45-1.17,6.7-1.69v-.69c0-1.32-.33-2.27-.98-2.83-.65-.56-1.89-.85-3.7-.85-1.23,0-2.18.24-2.87.72-.69.48-1.24,1.33-1.67,2.54Zm9.22,5.59c-.88.29-2.28.65-4.19,1.05-1.91.41-3.16.81-3.75,1.2-.9.64-1.35,1.45-1.35,2.43s.36,1.8,1.08,2.5c.72.7,1.63,1.05,2.75,1.05,1.24,0,2.43-.41,3.56-1.23.83-.62,1.38-1.38,1.64-2.28.18-.59.27-1.71.27-3.36v-1.37Z"/>
    <rect class="cls-8" x="1403.27" y="262.77" width="6.89" height="6.89"/>
    <polygon class="cls-8" points="1439.32 269.66 1439.32 239.79 1428.65 239.79 1428.65 233.7 1457.22 233.7 1457.22 239.79 1446.58 239.79 1446.58 269.66 1439.32 269.66"/>
    <path class="cls-8" d="m1468.73,233.7v13.22c2.22-2.6,4.88-3.9,7.97-3.9,1.59,0,3.02.29,4.29.88,1.28.59,2.24,1.34,2.88,2.26.65.92,1.09,1.93,1.32,3.04.24,1.11.36,2.84.36,5.18v15.28h-6.89v-13.76c0-2.73-.13-4.46-.39-5.2-.26-.74-.72-1.32-1.39-1.75-.66-.43-1.49-.65-2.49-.65-1.14,0-2.17.28-3.07.83-.9.56-1.56,1.39-1.97,2.51-.42,1.12-.62,2.78-.62,4.97v13.05h-6.89v-35.96h6.89Z"/>
    <path class="cls-8" d="m1492.54,240.08v-6.38h6.89v6.38h-6.89Zm0,29.58v-26.05h6.89v26.05h-6.89Z"/>
    <path class="cls-8" d="m1530.19,269.66h-6.89v-13.29c0-2.81-.15-4.63-.44-5.46-.29-.83-.77-1.47-1.43-1.93-.66-.46-1.46-.69-2.39-.69-1.19,0-2.26.33-3.21.98s-1.6,1.52-1.95,2.6-.53,3.07-.53,5.98v11.8h-6.89v-26.05h6.4v3.83c2.27-2.94,5.13-4.41,8.58-4.41,1.52,0,2.91.27,4.17.82s2.21,1.25,2.86,2.1c.65.85,1.09,1.82,1.35,2.89s.38,2.62.38,4.63v16.19Z"/>
    <polygon class="cls-8" points="1536.93 269.66 1536.93 233.7 1543.82 233.7 1543.82 252.78 1551.89 243.61 1560.38 243.61 1551.48 253.13 1561.02 269.66 1553.58 269.66 1547.04 257.96 1543.82 261.32 1543.82 269.66 1536.93 269.66"/>
    <path class="cls-8" d="m1594.15,261.37l6.87,1.15c-.88,2.52-2.28,4.43-4.18,5.75-1.9,1.32-4.29,1.97-7.15,1.97-4.53,0-7.88-1.48-10.06-4.44-1.72-2.37-2.58-5.36-2.58-8.98,0-4.32,1.13-7.7,3.38-10.14,2.26-2.44,5.11-3.67,8.56-3.67,3.88,0,6.93,1.28,9.17,3.84,2.24,2.56,3.31,6.48,3.21,11.76h-17.27c.05,2.04.61,3.63,1.67,4.77,1.06,1.14,2.39,1.71,3.97,1.71,1.08,0,1.99-.29,2.72-.88.74-.59,1.29-1.54,1.67-2.85Zm.39-6.96c-.05-2-.56-3.51-1.54-4.55-.98-1.04-2.17-1.56-3.58-1.56-1.5,0-2.75.55-3.73,1.64-.98,1.1-1.46,2.58-1.45,4.46h10.3Z"/>
    <rect class="cls-8" x="1606.22" y="253.18" width="13.54" height="6.89"/>
    <path class="cls-8" d="m1646.44,251.31l-6.79,1.23c-.23-1.36-.75-2.38-1.56-3.07-.81-.69-1.86-1.03-3.15-1.03-1.72,0-3.09.59-4.11,1.78-1.02,1.19-1.53,3.17-1.53,5.95,0,3.09.52,5.27,1.56,6.55,1.04,1.28,2.43,1.91,4.18,1.91,1.31,0,2.38-.37,3.21-1.12s1.42-2.02,1.77-3.84l6.77,1.15c-.7,3.11-2.05,5.45-4.05,7.04-2,1.59-4.67,2.38-8.02,2.38-3.81,0-6.85-1.2-9.11-3.61s-3.4-5.73-3.4-9.98,1.14-7.65,3.41-10.04c2.27-2.4,5.35-3.59,9.22-3.59,3.17,0,5.69.68,7.57,2.05,1.87,1.37,3.22,3.45,4.03,6.24Z"/>
    <path class="cls-8" d="m1650.07,256.27c0-2.29.56-4.5,1.69-6.65,1.13-2.14,2.73-3.78,4.79-4.9,2.07-1.13,4.38-1.69,6.93-1.69,3.94,0,7.17,1.28,9.69,3.84,2.52,2.56,3.78,5.79,3.78,9.7s-1.27,7.21-3.81,9.8c-2.54,2.59-5.74,3.89-9.6,3.89-2.39,0-4.66-.54-6.83-1.62-2.17-1.08-3.81-2.66-4.94-4.75-1.13-2.08-1.69-4.62-1.69-7.62Zm7.06.37c0,2.58.61,4.56,1.84,5.94,1.23,1.37,2.74,2.06,4.54,2.06s3.31-.69,4.53-2.06c1.22-1.37,1.83-3.37,1.83-5.98s-.61-4.51-1.83-5.89c-1.22-1.37-2.73-2.06-4.53-2.06s-3.31.69-4.54,2.06c-1.23,1.37-1.84,3.35-1.84,5.94Z"/>
    <path class="cls-8" d="m1706.04,269.66h-6.89v-13.29c0-2.81-.15-4.63-.44-5.46-.29-.83-.77-1.47-1.43-1.93-.66-.46-1.46-.69-2.39-.69-1.19,0-2.26.33-3.21.98s-1.6,1.52-1.95,2.6-.53,3.07-.53,5.98v11.8h-6.89v-26.05h6.4v3.83c2.27-2.94,5.13-4.41,8.58-4.41,1.52,0,2.91.27,4.17.82s2.21,1.25,2.86,2.1c.65.85,1.09,1.82,1.35,2.89s.38,2.62.38,4.63v16.19Z"/>
    <rect class="cls-8" x="1713.03" y="262.77" width="6.89" height="6.89"/>
    <path class="cls-9" d="m172.99,64.62c0-6.01,4.6-10.27,10.86-10.27,3.64,0,6.57,1.33,8.49,3.72l-3.55,3.22c-1.24-1.5-2.76-2.31-4.66-2.31-3.24,0-5.5,2.26-5.5,5.64s2.26,5.64,5.5,5.64c1.89,0,3.41-.82,4.66-2.31l3.55,3.22c-1.92,2.4-4.85,3.72-8.49,3.72-6.26,0-10.86-4.26-10.86-10.27Z"/>
    <polygon class="cls-9" points="214.91 70.17 214.91 74.49 199.05 74.49 199.05 54.74 214.54 54.74 214.54 59.06 204.58 59.06 204.58 62.39 213.36 62.39 213.36 66.56 204.58 66.56 204.58 70.17 214.91 70.17"/>
    <polygon class="cls-9" points="222.24 54.74 227.83 54.74 227.83 70.06 237.25 70.06 237.25 74.49 222.24 74.49 222.24 54.74"/>
    <polygon class="cls-9" points="259.53 70.17 259.53 74.49 243.67 74.49 243.67 54.74 259.16 54.74 259.16 59.06 249.21 59.06 249.21 62.39 257.98 62.39 257.98 66.56 249.21 66.56 249.21 70.17 259.53 70.17"/>
    <path class="cls-9" d="m285.65,69.07c0,3.41-2.82,5.42-8.13,5.42h-10.67v-19.75h10.1c5.19,0,7.73,2.12,7.73,5.16,0,1.89-.96,3.41-2.65,4.29,2.23.79,3.61,2.48,3.61,4.88Zm-13.26-10.3v3.81h3.84c1.86,0,2.82-.65,2.82-1.92s-.96-1.89-2.82-1.89h-3.84Zm7.62,9.68c0-1.35-1.02-2-2.93-2h-4.68v4.01h4.68c1.92,0,2.93-.65,2.93-2Z"/>
    <path class="cls-9" d="m301.42,69.24h-3.05v5.25h-5.59v-19.75h9.03c5.39,0,8.77,2.79,8.77,7.31,0,2.91-1.41,5.05-3.87,6.24l4.26,6.21h-5.98l-3.58-5.25Zm.06-10.1h-3.1v5.78h3.1c2.31,0,3.47-1.07,3.47-2.88s-1.16-2.91-3.47-2.91Z"/>
    <path class="cls-9" d="m331.12,70.65h-8.35l-1.55,3.84h-5.7l8.72-19.75h5.5l8.75,19.75h-5.81l-1.55-3.84Zm-1.64-4.12l-2.54-6.32-2.54,6.32h5.08Z"/>
    <polygon class="cls-9" points="347.5 59.17 341.44 59.17 341.44 54.74 359.13 54.74 359.13 59.17 353.09 59.17 353.09 74.49 347.5 74.49 347.5 59.17"/>
    <rect class="cls-9" x="365.44" y="54.74" width="5.59" height="19.75"/>
    <polygon class="cls-9" points="398.02 54.74 398.02 74.49 393.42 74.49 384.71 63.97 384.71 74.49 379.23 74.49 379.23 54.74 383.83 54.74 392.55 65.27 392.55 54.74 398.02 54.74"/>
    <path class="cls-9" d="m419.43,64.19h4.94v8.18c-2.29,1.64-5.42,2.51-8.29,2.51-6.29,0-10.89-4.26-10.89-10.27s4.6-10.27,11-10.27c3.7,0,6.69,1.27,8.63,3.61l-3.55,3.22c-1.35-1.5-2.91-2.2-4.8-2.2-3.39,0-5.64,2.23-5.64,5.64s2.26,5.64,5.59,5.64c1.04,0,2.03-.2,3.02-.65v-5.42Z"/>
    <polygon class="cls-9" points="250.67 296.51 250.67 303.59 245.09 303.59 245.09 296.43 237.55 283.84 243.45 283.84 248.13 291.69 252.82 283.84 258.23 283.84 250.67 296.51"/>
    <polygon class="cls-9" points="279.64 299.28 279.64 303.59 263.79 303.59 263.79 283.84 279.27 283.84 279.27 288.16 269.32 288.16 269.32 291.49 278.09 291.49 278.09 295.67 269.32 295.67 269.32 299.28 279.64 299.28"/>
    <path class="cls-9" d="m300.2,299.76h-8.35l-1.55,3.84h-5.7l8.72-19.75h5.5l8.75,19.75h-5.81l-1.55-3.84Zm-1.64-4.12l-2.54-6.32-2.54,6.32h5.08Z"/>
    <path class="cls-9" d="m322,298.34h-3.05v5.25h-5.59v-19.75h9.03c5.39,0,8.77,2.79,8.77,7.31,0,2.91-1.41,5.05-3.87,6.24l4.26,6.21h-5.98l-3.58-5.25Zm.06-10.1h-3.1v5.78h3.1c2.31,0,3.47-1.07,3.47-2.88s-1.16-2.91-3.47-2.91Z"/>
    <path class="cls-9" d="m337.09,301.82l1.83-4.12c1.75,1.16,4.23,1.95,6.52,1.95s3.22-.65,3.22-1.61c0-3.13-11.23-.85-11.23-8.18,0-3.53,2.88-6.4,8.75-6.4,2.57,0,5.22.59,7.17,1.72l-1.72,4.15c-1.89-1.02-3.75-1.52-5.47-1.52-2.34,0-3.19.79-3.19,1.78,0,3.02,11.2.76,11.2,8.04,0,3.44-2.88,6.38-8.75,6.38-3.24,0-6.46-.87-8.32-2.17Z"/>
    <polygon class="cls-9" points="441.09 71.04 467.68 71.04 467.68 94.81 484.62 94.81 484.62 54.1 441.09 54.1 441.09 71.04 441.09 71.04"/>
    <polygon class="cls-2" points="126.04 94.65 126.04 71.04 154.8 71.04 154.8 54.1 109.1 54.1 109.1 94.65 126.04 94.65 126.04 94.65"/>
    <polygon class="cls-9" points="154.39 286.43 126.04 286.43 126.04 260.39 109.1 260.39 109.1 303.37 154.39 303.37 154.39 286.43 154.39 286.43"/>
    <polygon class="cls-2" points="467.68 260.95 467.68 286.43 441.63 286.43 441.63 303.37 484.62 303.37 484.62 260.95 467.68 260.95 467.68 260.95"/>
    <g class="cls-11">
      <path class="cls-4" d="m275.92,126.7c-6.16,5.24-11.54,11.61-15.81,19.01-8.41,14.58-11.21,30.85-9.07,46.32l.21.06,25.57,14.76-.9-80.16Z"/>
      <path class="cls-4" d="m278.52,154.38l68.97-40.86c-7.62-2.71-15.82-4.19-24.37-4.19-16.83,0-32.32,5.72-44.65,15.31l.05.21v29.53Z"/>
      <path class="cls-4" d="m394.69,168.91c-1.46-7.95-4.28-15.8-8.56-23.2-8.42-14.57-21.11-25.13-35.58-31.01l-.15.15-25.57,14.76,69.87,39.3Z"/>
      <path class="cls-4" d="m251.55,195.27c1.46,7.95,4.28,15.8,8.56,23.2,8.42,14.58,21.11,25.13,35.58,31.01l.15-.15,25.57-14.76-69.87-39.3Z"/>
      <path class="cls-4" d="m395.19,172.15l-.21-.06-25.57-14.76.9,80.16c6.16-5.25,11.54-11.61,15.81-19.01,8.41-14.57,11.21-30.85,9.07-46.32Z"/>
      <path class="cls-4" d="m367.71,209.81l-68.97,40.86c7.62,2.71,15.82,4.19,24.37,4.19,16.83,0,32.32-5.72,44.65-15.31l-.05-.21v-29.53Z"/>
      <path class="cls-5" d="m281.12,182.09c0,23.19,18.8,42,42,42s42-18.8,42-42-18.8-42-42-42-42,18.8-42,42Zm74.64,0c0,9.01-3.65,17.18-9.56,23.08-5.91,5.91-14.07,9.56-23.08,9.56s-17.18-3.65-23.08-9.56c-5.91-5.91-9.56-14.07-9.56-23.08s3.65-17.18,9.56-23.08c5.91-5.91,14.07-9.56,23.08-9.56s17.18,3.65,23.08,9.56c5.91,5.91,9.56,14.07,9.56,23.08Z"/>
      <path class="cls-5" d="m323.12,93.07c-49.16,0-89.02,39.85-89.02,89.02s39.85,89.02,89.02,89.02,89.02-39.85,89.02-89.02-39.85-89.02-89.02-89.02Zm0,170.05c-44.75,0-81.03-36.28-81.03-81.03s36.28-81.03,81.03-81.03,81.03,36.28,81.03,81.03-36.28,81.03-81.03,81.03Z"/>
      <path class="cls-5" d="m323.12,93.07c-49.16,0-89.02,39.85-89.02,89.02s39.85,89.02,89.02,89.02,89.02-39.85,89.02-89.02-39.85-89.02-89.02-89.02Zm0,170.05c-44.75,0-81.03-36.28-81.03-81.03s36.28-81.03,81.03-81.03,81.03,36.28,81.03,81.03-36.28,81.03-81.03,81.03Z"/>
    </g>
    <g class="cls-10">
      <path class="cls-9" d="m322.17,254.63v16.3h-125.05v-12.99l74.11-72.58c20.12-19.87,23.94-31.84,23.94-44.06,0-20.63-14.52-33.36-41.77-33.36-20.88,0-36.93,6.37-48.64,19.87l-12.99-11.21c13.75-16.3,35.91-25.47,63.16-25.47,36.17,0,59.09,18.34,59.09,48.14,0,17.06-5.35,32.34-29.29,55.78l-60.61,59.6h98.05Z"/>
    </g>
    <path class="cls-9" d="m45.6,340.72c0-5.92,4.66-10.27,10.98-10.27s10.97,4.35,10.97,10.27-4.66,10.27-10.97,10.27-10.98-4.34-10.98-10.27Zm16.31,0c0-3.41-2.34-5.64-5.33-5.64s-5.33,2.23-5.33,5.64,2.34,5.64,5.33,5.64,5.33-2.23,5.33-5.64Z"/>
    <polygon class="cls-9" points="80.3 335.17 80.3 339.51 89.01 339.51 89.01 343.83 80.3 343.83 80.3 350.6 74.71 350.6 74.71 330.85 90.2 330.85 90.2 335.17 80.3 335.17"/>
    <path class="cls-9" d="m108.47,340.72c0-6.01,4.6-10.27,10.86-10.27,3.64,0,6.57,1.33,8.49,3.72l-3.55,3.22c-1.24-1.5-2.76-2.31-4.66-2.31-3.24,0-5.5,2.26-5.5,5.64s2.26,5.64,5.5,5.64c1.89,0,3.41-.82,4.66-2.31l3.55,3.22c-1.92,2.4-4.85,3.72-8.49,3.72-6.26,0-10.86-4.26-10.86-10.27Z"/>
    <path class="cls-9" d="m147.43,346.76h-8.35l-1.55,3.84h-5.7l8.72-19.75h5.5l8.75,19.75h-5.81l-1.55-3.84Zm-1.64-4.12l-2.54-6.32-2.54,6.32h5.08Z"/>
    <polygon class="cls-9" points="178.43 350.6 178.37 340.13 173.29 348.65 170.81 348.65 165.76 340.41 165.76 350.6 160.6 350.6 160.6 330.85 165.2 330.85 172.14 342.25 178.91 330.85 183.51 330.85 183.56 350.6 178.43 350.6"/>
    <polygon class="cls-9" points="207.59 346.28 207.59 350.6 191.74 350.6 191.74 330.85 207.22 330.85 207.22 335.17 197.27 335.17 197.27 338.49 206.04 338.49 206.04 342.67 197.27 342.67 197.27 346.28 207.59 346.28"/>
    <path class="cls-9" d="m223.55,345.35h-3.05v5.25h-5.59v-19.75h9.03c5.39,0,8.77,2.79,8.77,7.31,0,2.91-1.41,5.05-3.87,6.24l4.26,6.21h-5.98l-3.58-5.25Zm.06-10.1h-3.1v5.78h3.1c2.31,0,3.47-1.07,3.47-2.88s-1.16-2.91-3.47-2.91Z"/>
    <path class="cls-9" d="m253.26,346.76h-8.35l-1.55,3.84h-5.7l8.72-19.75h5.5l8.75,19.75h-5.81l-1.55-3.84Zm-1.64-4.12l-2.54-6.32-2.54,6.32h5.08Z"/>
    <polygon class="cls-9" points="294.72 346.28 294.72 350.6 278.86 350.6 278.86 330.85 294.35 330.85 294.35 335.17 284.39 335.17 284.39 338.49 293.17 338.49 293.17 342.67 284.39 342.67 284.39 346.28 294.72 346.28"/>
    <polygon class="cls-9" points="320.84 330.85 320.84 350.6 316.24 350.6 307.52 340.07 307.52 350.6 302.05 350.6 302.05 330.85 306.65 330.85 315.37 341.37 315.37 330.85 320.84 330.85"/>
    <path class="cls-9" d="m342.25,340.3h4.94v8.18c-2.29,1.64-5.42,2.51-8.29,2.51-6.29,0-10.89-4.26-10.89-10.27s4.6-10.27,11-10.27c3.7,0,6.69,1.27,8.63,3.61l-3.55,3.22c-1.35-1.5-2.91-2.2-4.8-2.2-3.39,0-5.64,2.23-5.64,5.64s2.26,5.64,5.59,5.64c1.04,0,2.03-.2,3.02-.65v-5.42Z"/>
    <rect class="cls-9" x="354.96" y="330.85" width="5.59" height="19.75"/>
    <polygon class="cls-9" points="387.55 330.85 387.55 350.6 382.95 350.6 374.23 340.07 374.23 350.6 368.76 350.6 368.76 330.85 373.36 330.85 382.07 341.37 382.07 330.85 387.55 330.85"/>
    <polygon class="cls-9" points="411.58 346.28 411.58 350.6 395.72 350.6 395.72 330.85 411.21 330.85 411.21 335.17 401.25 335.17 401.25 338.49 410.03 338.49 410.03 342.67 401.25 342.67 401.25 346.28 411.58 346.28"/>
    <polygon class="cls-9" points="434.76 346.28 434.76 350.6 418.91 350.6 418.91 330.85 434.4 330.85 434.4 335.17 424.44 335.17 424.44 338.49 433.21 338.49 433.21 342.67 424.44 342.67 424.44 346.28 434.76 346.28"/>
    <path class="cls-9" d="m450.72,345.35h-3.05v5.25h-5.59v-19.75h9.03c5.39,0,8.77,2.79,8.77,7.31,0,2.91-1.41,5.05-3.87,6.24l4.26,6.21h-5.98l-3.58-5.25Zm.06-10.1h-3.1v5.78h3.1c2.31,0,3.47-1.07,3.47-2.88s-1.16-2.91-3.47-2.91Z"/>
    <rect class="cls-9" x="467.19" y="330.85" width="5.59" height="19.75"/>
    <polygon class="cls-9" points="499.78 330.85 499.78 350.6 495.18 350.6 486.46 340.07 486.46 350.6 480.99 350.6 480.99 330.85 485.59 330.85 494.3 341.37 494.3 330.85 499.78 330.85"/>
    <path class="cls-9" d="m521.18,340.3h4.94v8.18c-2.29,1.64-5.42,2.51-8.29,2.51-6.29,0-10.89-4.26-10.89-10.27s4.6-10.27,11-10.27c3.7,0,6.69,1.27,8.63,3.61l-3.55,3.22c-1.35-1.5-2.91-2.2-4.8-2.2-3.39,0-5.64,2.23-5.64,5.64s2.26,5.64,5.59,5.64c1.04,0,2.03-.2,3.02-.65v-5.42Z"/>
    <path class="cls-3" d="m1739.78,101.01h11.97v2.77h-4.2v14.64h-3.56l.05-14.64h-4.25v-2.77Zm14.74,0h4.6l5.39,13.21,5.54-13.21h4.35v17.41h-3.31l-.05-12.61-5.39,12.61h-2.52l-5.34-12.81v12.81h-3.26v-17.41Z"/>
  </g>
</svg>